<svg version="1.1" id="Layer_1" xmlns="http://www.w3.org/2000/svg" xmlns:xlink="http://www.w3.org/1999/xlink" x="0px" y="0px"
	 width="100%" viewBox="0 0 500 500" enable-background="new 0 0 500 500" xml:space="preserve">
<path fill="#FFFFFF" opacity="1.000000" stroke="none" 
	d="
M284.000000,501.000000 
	C189.333359,501.000000 95.166710,501.000000 1.000051,501.000000 
	C1.000034,334.333405 1.000034,167.666794 1.000017,1.000140 
	C167.666565,1.000093 334.333130,1.000093 500.999756,1.000047 
	C500.999847,167.666519 500.999847,334.333038 500.999939,500.999786 
	C428.833344,501.000000 356.666656,501.000000 284.000000,501.000000 
M225.971542,479.889435 
	C236.621292,479.812408 247.271057,479.735352 258.744049,479.756470 
	C265.492340,478.854919 272.277100,478.166595 278.983185,477.018494 
	C338.562988,466.818298 387.132935,437.849060 423.597931,389.777863 
	C464.501251,335.855804 478.896332,274.814880 466.508636,208.398834 
	C454.964355,146.504761 422.399658,97.161652 370.469452,61.630913 
	C322.175751,28.588299 268.337830,16.068493 210.206100,23.983261 
	C165.276108,30.100584 125.528030,48.004272 91.219872,77.905830 
	C60.553020,104.633789 38.320053,137.041199 24.951044,175.411331 
	C13.224824,209.066528 9.484988,243.599884 13.893426,279.094604 
	C18.018217,312.305542 28.721502,343.121124 46.300301,371.480164 
	C67.987747,406.467438 97.056702,433.816803 133.344696,453.295471 
	C161.984970,468.668945 192.642410,477.307190 225.971542,479.889435 
z"/>
<path fill="#FC434E" opacity="1.000000" stroke="none" 
	d="
M225.062393,479.680847 
	C192.642410,477.307190 161.984970,468.668945 133.344696,453.295471 
	C97.056702,433.816803 67.987747,406.467438 46.300301,371.480164 
	C28.721502,343.121124 18.018217,312.305542 13.893426,279.094604 
	C9.484988,243.599884 13.224824,209.066528 24.951044,175.411331 
	C38.320053,137.041199 60.553020,104.633789 91.219872,77.905830 
	C125.528030,48.004272 165.276108,30.100584 210.206100,23.983261 
	C268.337830,16.068493 322.175751,28.588299 370.469452,61.630913 
	C422.399658,97.161652 454.964355,146.504761 466.508636,208.398834 
	C478.896332,274.814880 464.501251,335.855804 423.597931,389.777863 
	C387.132935,437.849060 338.562988,466.818298 278.983185,477.018494 
	C272.277100,478.166595 265.492340,478.854919 257.992615,479.488220 
	C246.514938,479.373627 235.788666,479.527222 225.062393,479.680847 
M239.333755,256.448090 
	C240.570877,255.953568 241.807999,255.459045 243.839996,254.953400 
	C244.366257,254.892380 244.892532,254.831360 245.736374,254.777252 
	C245.736374,254.777252 245.996338,254.959793 246.571777,255.569656 
	C252.206009,255.701416 257.847534,256.025391 263.468719,255.812531 
	C264.681152,255.766617 266.692719,253.893539 266.842957,252.677597 
	C267.511108,247.270416 267.772552,241.797791 267.838348,236.344711 
	C267.850830,235.311279 266.308960,234.259094 265.198425,233.126465 
	C265.198425,233.126465 265.018860,232.886917 265.013519,232.110367 
	C265.161407,231.155716 265.005524,229.987213 265.503937,229.279358 
	C270.715607,221.877319 265.969452,214.113464 266.385071,206.553070 
	C266.397339,206.329819 265.598053,206.061966 264.854431,205.077042 
	C256.782990,204.005661 248.553238,201.569199 240.890625,207.574646 
	C240.900574,207.583221 240.452499,207.337952 240.204330,206.961060 
	C237.442734,202.767181 220.889984,202.617386 217.074799,207.134003 
	C216.734787,213.167877 216.337692,219.199707 216.119781,225.237991 
	C216.089066,226.088974 216.707382,227.338791 217.413513,227.773758 
	C219.999023,229.366470 218.410080,231.326523 218.083679,233.092697 
	C218.083679,233.092697 218.196136,233.113419 217.428558,233.373383 
	C217.081451,240.254562 216.716171,247.135117 216.480469,254.020111 
	C216.473831,254.214020 217.850220,254.455276 218.823959,254.654602 
	C218.823959,254.654602 218.997253,254.825027 219.526962,255.490997 
	C226.000061,255.633240 232.473145,255.775482 239.333755,256.448090 
M155.024078,119.548172 
	C149.552551,127.847923 142.941101,135.621262 138.820221,144.544724 
	C125.715630,172.921799 124.753227,202.870193 130.721710,233.018875 
	C136.699234,263.213287 150.888077,290.105103 168.208710,315.058350 
	C184.693954,338.808075 202.822739,361.424042 220.434799,384.380524 
	C226.380341,392.130249 226.897522,398.513306 221.330627,406.641357 
	C220.107254,408.427582 219.322998,410.514557 218.336517,412.463013 
	C220.847565,412.985413 223.342148,413.775574 225.875748,413.931458 
	C227.441589,414.027802 229.085815,413.218201 230.662430,412.713837 
	C243.499832,408.607422 251.173782,398.207886 259.044403,388.470490 
	C280.373993,362.081848 300.542938,334.845398 318.199036,305.778473 
	C329.746338,286.768250 339.879028,267.186127 345.543640,245.618057 
	C347.295013,238.949646 347.884857,231.857330 348.076172,224.933395 
	C348.247192,218.743561 345.145630,215.547867 339.123383,216.156204 
	C331.773041,216.898727 324.533508,218.946136 317.337769,220.787674 
	C316.247528,221.066666 315.274323,223.186066 314.896667,224.624741 
	C313.336304,230.568954 312.383698,236.690948 310.549469,242.541245 
	C306.667480,254.922867 300.837250,266.132324 290.416077,274.536346 
	C281.465942,281.754089 271.237457,285.644318 260.059998,287.518127 
	C236.796524,291.418060 214.610031,289.399872 194.568268,275.638916 
	C179.799683,265.498566 171.663712,250.859909 167.309662,233.995682 
	C166.514877,230.917343 167.618423,226.817978 169.128815,223.840897 
	C170.370056,221.394363 173.512192,219.909973 175.817337,218.005829 
	C195.822678,201.480545 215.891113,185.030579 235.780472,168.366867 
	C239.520737,165.233170 242.502029,165.484116 245.856323,168.475632 
	C250.936142,173.006073 255.908432,177.673218 261.187439,181.960876 
	C272.365051,191.039429 284.295258,198.745926 298.549286,202.321228 
	C320.884888,207.923599 339.418488,195.548035 342.073486,172.923935 
	C344.243011,154.437149 338.756348,137.741028 328.009705,123.201065 
	C313.843475,104.034401 295.490417,89.908485 272.168427,83.294113 
	C246.189240,75.926147 220.817413,78.042831 196.155838,88.987495 
	C180.378204,95.989532 167.350098,106.715302 155.024078,119.548172 
z"/>
<path fill="#CE4951" opacity="1.000000" stroke="none" 
	d="
M225.516968,479.785156 
	C235.788666,479.527222 246.514938,479.373627 257.580994,479.439148 
	C247.271057,479.735352 236.621292,479.812408 225.516968,479.785156 
z"/>
<path fill="#FEFCFC" opacity="1.000000" stroke="none" 
	d="
M155.244431,119.270699 
	C167.350098,106.715302 180.378204,95.989532 196.155838,88.987495 
	C220.817413,78.042831 246.189240,75.926147 272.168427,83.294113 
	C295.490417,89.908485 313.843475,104.034401 328.009705,123.201065 
	C338.756348,137.741028 344.243011,154.437149 342.073486,172.923935 
	C339.418488,195.548035 320.884888,207.923599 298.549286,202.321228 
	C284.295258,198.745926 272.365051,191.039429 261.187439,181.960876 
	C255.908432,177.673218 250.936142,173.006073 245.856323,168.475632 
	C242.502029,165.484116 239.520737,165.233170 235.780472,168.366867 
	C215.891113,185.030579 195.822678,201.480545 175.817337,218.005829 
	C173.512192,219.909973 170.370056,221.394363 169.128815,223.840897 
	C167.618423,226.817978 166.514877,230.917343 167.309662,233.995682 
	C171.663712,250.859909 179.799683,265.498566 194.568268,275.638916 
	C214.610031,289.399872 236.796524,291.418060 260.059998,287.518127 
	C271.237457,285.644318 281.465942,281.754089 290.416077,274.536346 
	C300.837250,266.132324 306.667480,254.922867 310.549469,242.541245 
	C312.383698,236.690948 313.336304,230.568954 314.896667,224.624741 
	C315.274323,223.186066 316.247528,221.066666 317.337769,220.787674 
	C324.533508,218.946136 331.773041,216.898727 339.123383,216.156204 
	C345.145630,215.547867 348.247192,218.743561 348.076172,224.933395 
	C347.884857,231.857330 347.295013,238.949646 345.543640,245.618057 
	C339.879028,267.186127 329.746338,286.768250 318.199036,305.778473 
	C300.542938,334.845398 280.373993,362.081848 259.044403,388.470490 
	C251.173782,398.207886 243.499832,408.607422 230.662430,412.713837 
	C229.085815,413.218201 227.441589,414.027802 225.875748,413.931458 
	C223.342148,413.775574 220.847565,412.985413 218.336517,412.463013 
	C219.322998,410.514557 220.107254,408.427582 221.330627,406.641357 
	C226.897522,398.513306 226.380341,392.130249 220.434799,384.380524 
	C202.822739,361.424042 184.693954,338.808075 168.208710,315.058350 
	C150.888077,290.105103 136.699234,263.213287 130.721710,233.018875 
	C124.753227,202.870193 125.715630,172.921799 138.820221,144.544724 
	C142.941101,135.621262 149.552551,127.847923 155.244431,119.270699 
M165.753448,173.253601 
	C164.452911,178.931580 162.612610,184.572647 163.980789,190.563766 
	C164.900009,190.440720 165.318787,190.513794 165.531143,190.337784 
	C178.580811,179.521255 191.648041,168.725464 204.635757,157.834839 
	C213.304077,150.566177 221.634750,142.877319 230.519714,135.889145 
	C240.825897,127.783188 246.178558,128.468796 255.605698,137.758041 
	C262.961487,145.006256 270.176697,152.428757 277.937286,159.222122 
	C282.239014,162.987701 287.231079,166.366531 292.489502,168.488647 
	C295.712433,169.789307 300.688660,169.566498 303.690186,167.895325 
	C307.623657,165.705276 306.591858,160.798172 305.312927,156.932846 
	C298.533142,136.442490 283.801422,123.733246 264.246368,116.270561 
	C249.020340,110.459946 233.563248,111.059731 218.319855,116.670883 
	C191.568283,126.518227 173.707642,144.755844 165.753448,173.253601 
M271.460449,318.228485 
	C270.515869,318.125275 269.527924,317.787872 268.633087,317.953491 
	C251.261841,321.168243 233.919998,320.974609 216.573990,317.737549 
	C215.597031,317.555206 214.491516,318.061676 213.445831,318.247559 
	C213.781189,319.414673 213.811020,320.816162 214.498871,321.712921 
	C221.872894,331.326263 229.330750,340.875732 236.814499,350.404297 
	C238.699997,352.804962 240.759735,355.068756 243.231339,357.973602 
	C249.110092,350.201569 254.479019,343.277740 259.651520,336.210236 
	C263.820831,330.513397 267.752899,324.642944 271.460449,318.228485 
z"/>
<path fill="#FEF7F7" opacity="1.000000" stroke="none" 
	d="
M245.996338,254.959793 
	C245.996338,254.959793 245.736374,254.777252 245.381683,254.406647 
	C244.744858,247.375031 244.462708,240.714020 244.373138,233.935211 
	C244.770264,233.589172 244.917755,233.328613 245.474716,232.980362 
	C252.300461,232.912292 258.659668,232.899612 265.018860,232.886917 
	C265.018860,232.886917 265.198425,233.126465 265.447876,233.615143 
	C265.783478,239.407333 265.758270,244.715775 265.993561,250.012665 
	C266.159454,253.748474 264.471619,255.017838 260.926697,254.922867 
	C255.953812,254.789658 250.973480,254.934113 245.996338,254.959793 
z"/>
<path fill="#FEF8F8" opacity="1.000000" stroke="none" 
	d="
M218.997253,254.825027 
	C218.997253,254.825027 218.823959,254.654602 218.525940,254.247116 
	C218.217331,246.930893 218.206726,240.022156 218.196136,233.113419 
	C218.196136,233.113419 218.083679,233.092697 218.572113,233.067734 
	C225.659271,233.070663 232.258011,233.098557 238.880096,233.111511 
	C238.903442,233.096588 238.854095,233.077576 238.901978,233.372620 
	C239.170181,233.988403 239.390503,234.309143 239.575897,234.766907 
	C239.540970,234.903931 239.608841,235.178436 239.498016,235.569107 
	C239.394760,241.323135 239.402328,246.686508 239.288147,252.356476 
	C239.077820,253.093475 238.989197,253.523865 238.500549,254.052917 
	C231.732773,254.376053 225.365005,254.600540 218.997253,254.825027 
z"/>
<path fill="#E95E68" opacity="1.000000" stroke="none" 
	d="
M217.792252,206.775269 
	C220.889984,202.617386 237.442734,202.767181 240.204330,206.961060 
	C240.452499,207.337952 240.900574,207.583221 240.890625,207.574646 
	C248.553238,201.569199 256.782990,204.005661 264.941376,205.523865 
	C265.028320,205.970673 264.881165,206.123383 264.423126,206.068878 
	C259.022125,205.914474 254.076340,205.885986 249.137085,205.691833 
	C245.261429,205.539474 243.834305,207.376373 243.966934,211.098297 
	C244.154816,216.370148 244.117630,221.650024 243.894073,226.807114 
	C242.142075,226.803085 240.672638,226.918411 239.173096,226.564087 
	C239.214325,220.943756 239.498367,215.782013 239.231400,210.648926 
	C239.147873,209.043106 237.589615,206.173904 236.687836,206.166565 
	C230.474655,206.115997 224.256546,206.670532 217.976746,206.967957 
	C217.913467,206.905457 217.792252,206.775269 217.792252,206.775269 
M241.545715,217.921112 
	C241.329651,219.269745 241.113586,220.618393 240.897522,221.967041 
	C241.243073,221.994049 241.588638,222.021057 241.934189,222.048065 
	C241.934189,220.836838 241.934189,219.625610 241.545715,217.921112 
z"/>
<path fill="#E95E68" opacity="1.000000" stroke="none" 
	d="
M238.856750,233.126450 
	C232.258011,233.098557 225.659271,233.070663 218.607025,233.113007 
	C218.410080,231.326523 219.999023,229.366470 217.413513,227.773758 
	C216.707382,227.338791 216.089066,226.088974 216.119781,225.237991 
	C216.337692,219.199707 216.734787,213.167877 217.433533,206.954636 
	C217.792252,206.775269 217.913467,206.905457 217.936798,207.433258 
	C217.891068,213.226730 217.837128,218.492630 217.747131,223.757919 
	C217.695938,226.752869 218.970901,228.480606 222.118408,228.382782 
	C227.706757,228.209122 233.293549,227.984436 238.768356,228.138916 
	C236.780426,229.218719 234.905136,229.940720 233.866791,230.340500 
	C235.136169,231.049194 236.996460,232.087830 238.856750,233.126450 
z"/>
<path fill="#E95E68" opacity="1.000000" stroke="none" 
	d="
M265.016174,232.498642 
	C258.659668,232.899612 252.300461,232.912292 245.553406,232.589890 
	C248.049759,231.633209 250.933975,231.011597 252.824371,230.604187 
	C250.755844,229.897781 247.884979,228.917374 245.480225,227.993042 
	C251.262009,228.124054 256.586761,228.391357 261.887024,228.140808 
	C263.240143,228.076859 265.640228,226.378464 265.645264,225.420929 
	C265.679138,218.989944 265.196442,212.556213 264.881165,206.123383 
	C264.881165,206.123383 265.028320,205.970673 265.102722,205.892792 
	C265.598053,206.061966 266.397339,206.329819 266.385071,206.553070 
	C265.969452,214.113464 270.715607,221.877319 265.503937,229.279358 
	C265.005524,229.987213 265.161407,231.155716 265.016174,232.498642 
M262.483063,230.595810 
	C262.483063,230.595810 262.409271,230.477707 262.483063,230.595810 
z"/>
<path fill="#E95E68" opacity="1.000000" stroke="none" 
	d="
M239.409882,252.049866 
	C239.402328,246.686508 239.394760,241.323135 239.900940,235.518646 
	C241.669952,234.736023 242.925262,234.394516 244.180557,234.053009 
	C244.462708,240.714020 244.744858,247.375031 245.222900,254.403198 
	C244.892532,254.831360 244.366257,254.892380 243.302765,254.664734 
	C241.646973,253.600677 240.528427,252.825272 239.409882,252.049866 
M240.991547,242.990356 
	C241.096115,243.288193 241.186020,243.592773 241.317398,243.878296 
	C241.344223,243.936584 241.526672,243.923279 241.637390,243.942978 
	C241.753632,242.639435 241.869873,241.335892 241.986115,240.032349 
	C241.692383,240.015030 241.398651,239.997726 241.104935,239.980408 
	C241.062759,240.762558 241.020599,241.544708 240.991547,242.990356 
M241.677826,248.593781 
	C241.970047,248.373535 242.262268,248.153275 242.554489,247.933014 
	C242.376190,247.744492 242.197906,247.555954 242.019592,247.367416 
	C241.789825,247.653091 241.560074,247.938782 241.677826,248.593781 
z"/>
<path fill="#E95E68" opacity="1.000000" stroke="none" 
	d="
M246.284058,255.264725 
	C250.973480,254.934113 255.953812,254.789658 260.926697,254.922867 
	C264.471619,255.017838 266.159454,253.748474 265.993561,250.012665 
	C265.758270,244.715775 265.783478,239.407333 265.590820,233.659698 
	C266.308960,234.259094 267.850830,235.311279 267.838348,236.344711 
	C267.772552,241.797791 267.511108,247.270416 266.842957,252.677597 
	C266.692719,253.893539 264.681152,255.766617 263.468719,255.812531 
	C257.847534,256.025391 252.206009,255.701416 246.284058,255.264725 
z"/>
<path fill="#E95E68" opacity="1.000000" stroke="none" 
	d="
M217.812347,233.243408 
	C218.206726,240.022156 218.217331,246.930893 218.404816,254.257050 
	C217.850220,254.455276 216.473831,254.214020 216.480469,254.020111 
	C216.716171,247.135117 217.081451,240.254562 217.812347,233.243408 
z"/>
<path fill="#E95E68" opacity="1.000000" stroke="none" 
	d="
M219.262115,255.158020 
	C225.365005,254.600540 231.732773,254.376053 238.702835,254.169708 
	C239.185516,254.764481 239.065887,255.341095 238.946243,255.917725 
	C232.473145,255.775482 226.000061,255.633240 219.262115,255.158020 
z"/>
<path fill="#F8434C" opacity="1.000000" stroke="none" 
	d="
M239.139999,256.182922 
	C239.065887,255.341095 239.185516,254.764481 239.102859,254.071045 
	C238.989197,253.523865 239.077820,253.093475 239.288147,252.356476 
	C240.528427,252.825272 241.646973,253.600677 242.905304,254.670303 
	C241.807999,255.459045 240.570877,255.953568 239.139999,256.182922 
z"/>
<path fill="#F94651" opacity="1.000000" stroke="none" 
	d="
M165.846085,172.851715 
	C173.707642,144.755844 191.568283,126.518227 218.319855,116.670883 
	C233.563248,111.059731 249.020340,110.459946 264.246368,116.270561 
	C283.801422,123.733246 298.533142,136.442490 305.312927,156.932846 
	C306.591858,160.798172 307.623657,165.705276 303.690186,167.895325 
	C300.688660,169.566498 295.712433,169.789307 292.489502,168.488647 
	C287.231079,166.366531 282.239014,162.987701 277.937286,159.222122 
	C270.176697,152.428757 262.961487,145.006256 255.605698,137.758041 
	C246.178558,128.468796 240.825897,127.783188 230.519714,135.889145 
	C221.634750,142.877319 213.304077,150.566177 204.635757,157.834839 
	C191.648041,168.725464 178.580811,179.521255 165.531143,190.337784 
	C165.318787,190.513794 164.900009,190.440720 163.980789,190.563766 
	C162.612610,184.572647 164.452911,178.931580 165.846085,172.851715 
z"/>
<path fill="#F84853" opacity="1.000000" stroke="none" 
	d="
M271.625305,318.539001 
	C267.752899,324.642944 263.820831,330.513397 259.651520,336.210236 
	C254.479019,343.277740 249.110092,350.201569 243.231339,357.973602 
	C240.759735,355.068756 238.699997,352.804962 236.814499,350.404297 
	C229.330750,340.875732 221.872894,331.326263 214.498871,321.712921 
	C213.811020,320.816162 213.781189,319.414673 213.445831,318.247559 
	C214.491516,318.061676 215.597031,317.555206 216.573990,317.737549 
	C233.919998,320.974609 251.261841,321.168243 268.633087,317.953491 
	C269.527924,317.787872 270.515869,318.125275 271.625305,318.539001 
z"/>
<path fill="#F8434C" opacity="1.000000" stroke="none" 
	d="
M244.373138,233.935211 
	C242.925262,234.394516 241.669952,234.736023 240.011749,235.127991 
	C239.608841,235.178436 239.540970,234.903931 239.624542,234.440826 
	C239.423431,233.677673 239.138763,233.377625 238.854095,233.077576 
	C238.854095,233.077576 238.903442,233.096588 238.880096,233.111511 
	C236.996460,232.087830 235.136169,231.049194 233.866791,230.340500 
	C234.905136,229.940720 236.780426,229.218719 238.819107,227.939255 
	C238.982483,227.381790 239.203201,227.033722 239.203201,227.033722 
	C240.672638,226.918411 242.142075,226.803085 244.087830,226.923508 
	C244.774414,227.383621 244.924393,227.642853 245.014114,227.936951 
	C247.884979,228.917374 250.755844,229.897781 252.824371,230.604187 
	C250.933975,231.011597 248.049759,231.633209 245.086853,232.645279 
	C244.917755,233.328613 244.770264,233.589172 244.373138,233.935211 
z"/>
<path fill="#E95E68" opacity="1.000000" stroke="none" 
	d="
M238.901978,233.372620 
	C239.138763,233.377625 239.423431,233.677673 239.659454,234.303802 
	C239.390503,234.309143 239.170181,233.988403 238.901978,233.372620 
z"/>
<path fill="#FEF8F9" opacity="1.000000" stroke="none" 
	d="
M245.480225,227.993042 
	C244.924393,227.642853 244.774414,227.383621 244.370407,227.042862 
	C244.117630,221.650024 244.154816,216.370148 243.966934,211.098297 
	C243.834305,207.376373 245.261429,205.539474 249.137085,205.691833 
	C254.076340,205.885986 259.022125,205.914474 264.423126,206.068878 
	C265.196442,212.556213 265.679138,218.989944 265.645264,225.420929 
	C265.640228,226.378464 263.240143,228.076859 261.887024,228.140808 
	C256.586761,228.391357 251.262009,228.124054 245.480225,227.993042 
z"/>
<path fill="#FEF9F8" opacity="1.000000" stroke="none" 
	d="
M239.173096,226.564087 
	C239.203201,227.033722 238.982483,227.381790 238.931732,227.581451 
	C233.293549,227.984436 227.706757,228.209122 222.118408,228.382782 
	C218.970901,228.480606 217.695938,226.752869 217.747131,223.757919 
	C217.837128,218.492630 217.891068,213.226730 218.000061,207.495758 
	C224.256546,206.670532 230.474655,206.115997 236.687836,206.166565 
	C237.589615,206.173904 239.147873,209.043106 239.231400,210.648926 
	C239.498367,215.782013 239.214325,220.943756 239.173096,226.564087 
z"/>
<path fill="#F8434C" opacity="1.000000" stroke="none" 
	d="
M241.739960,218.167755 
	C241.934189,219.625610 241.934189,220.836838 241.934189,222.048065 
	C241.588638,222.021057 241.243073,221.994049 240.897522,221.967041 
	C241.113586,220.618393 241.329651,219.269745 241.739960,218.167755 
z"/>
<path fill="#FC434E" opacity="1.000000" stroke="none" 
	d="
M262.446167,230.536758 
	C262.409271,230.477707 262.483063,230.595810 262.446167,230.536758 
z"/>
<path fill="#F8434C" opacity="1.000000" stroke="none" 
	d="
M240.984985,242.658600 
	C241.020599,241.544708 241.062759,240.762558 241.104935,239.980408 
	C241.398651,239.997726 241.692383,240.015030 241.986115,240.032349 
	C241.869873,241.335892 241.753632,242.639435 241.637390,243.942978 
	C241.526672,243.923279 241.344223,243.936584 241.317398,243.878296 
	C241.186020,243.592773 241.096115,243.288193 240.984985,242.658600 
z"/>
<path fill="#F8434C" opacity="1.000000" stroke="none" 
	d="
M241.504074,248.409119 
	C241.560074,247.938782 241.789825,247.653091 242.019592,247.367432 
	C242.197906,247.555954 242.376190,247.744492 242.554489,247.933014 
	C242.262268,248.153275 241.970047,248.373535 241.504074,248.409119 
z"/>
</svg>